<?xml version="1.0" encoding="UTF-8" standalone="no"?>
<!DOCTYPE svg PUBLIC "-//W3C//DTD SVG 1.1//EN" "http://www.w3.org/Graphics/SVG/1.1/DTD/svg11.dtd">
<svg width="100%" height="100%" viewBox="0 0 554 268" version="1.1" xmlns="http://www.w3.org/2000/svg" xmlns:xlink="http://www.w3.org/1999/xlink" xml:space="preserve" xmlns:serif="http://www.serif.com/" style="fill-rule:evenodd;clip-rule:evenodd;stroke-linejoin:round;stroke-miterlimit:2;">
    <g transform="matrix(1,0,0,1,-130.546,-46.0198)">
        <g transform="matrix(5.55556,0,0,5.55556,0,0)">
            <g transform="matrix(0.854848,0,0,0.854848,22.7673,7.87408)">
                <path d="M0.855,0.479C4.217,1.185 7.58,1.883 10.944,2.6C14.306,3.316 17.67,4.051 21.034,4.779C23.937,9.049 24.896,12.799 24.892,16.431C24.889,20.026 23.86,23.591 20.765,27.217L0.906,27.217C4.694,22.902 5.884,18.665 6.008,14.404C6.132,10.139 5.223,5.715 0.855,0.479Z" style="fill:rgb(0,179,240);"/>
            </g>
            <g transform="matrix(0.854848,0,0,0.854848,22.7673,7.87408)">
                <path d="M15.292,19.95C14.547,19.9 13.795,19.68 13.025,19.284C13.134,18.083 13.201,16.886 13.244,15.68C13.567,16.011 13.884,16.229 14.202,16.34C14.52,16.451 14.97,16.532 15.55,16.589C16.443,16.676 17.136,16.463 17.627,15.947C18.118,15.436 18.373,14.789 18.358,14.001C18.342,13.163 18.051,12.401 17.518,11.723C16.971,11.024 16.26,10.614 15.398,10.485C14.662,10.374 14.047,10.514 13.55,10.91C13.042,11.314 12.756,11.902 12.686,12.677C12.645,15.099 12.715,17.547 12.316,19.931C11.904,22.382 10.496,24.752 7.859,27.217L4.109,27.217C6.816,24.672 8.318,22.23 8.742,19.701C9.153,17.247 9.178,14.724 9.151,12.23C9.128,10.183 9.466,8.643 10.445,7.528C11.363,6.482 12.615,6.067 14.375,6.396C16.325,6.762 18.122,7.72 19.581,9.281C20.952,10.749 21.721,12.366 21.795,14.11C21.867,15.814 21.253,17.235 20.086,18.378C18.88,19.558 17.261,20.079 15.292,19.95Z" style="fill:white;fill-rule:nonzero;"/>
            </g>
            <g transform="matrix(0.854848,0,0,0.854848,22.7673,7.87408)">
                <path d="M0.855,53.955C4.217,53.249 7.58,52.551 10.944,51.835C14.306,51.118 17.67,50.383 21.034,49.655C23.937,45.385 24.896,41.635 24.892,38.003C24.889,34.408 23.86,30.843 20.765,27.217L0.906,27.217C4.694,31.533 5.884,35.769 6.008,40.03C6.132,44.295 5.223,48.72 0.855,53.955Z" style="fill:rgb(166,206,56);"/>
            </g>
            <g transform="matrix(0.854848,0,0,0.854848,22.7673,7.87408)">
                <path d="M15.292,34.484C14.547,34.534 13.795,34.755 13.025,35.15C13.134,36.351 13.201,37.549 13.244,38.755C13.567,38.423 13.884,38.205 14.202,38.094C14.52,37.983 14.97,37.902 15.55,37.845C16.443,37.758 17.136,37.971 17.627,38.487C18.118,38.998 18.373,39.645 18.358,40.434C18.342,41.271 18.051,42.033 17.518,42.712C16.971,43.41 16.26,43.82 15.398,43.95C14.662,44.06 14.047,43.92 13.55,43.524C13.042,43.12 12.756,42.533 12.686,41.757C12.645,39.335 12.715,36.887 12.316,34.503C11.904,32.052 10.496,29.682 7.859,27.217L4.109,27.217C6.816,29.763 8.318,32.204 8.742,34.733C9.153,37.187 9.178,39.71 9.151,42.204C9.128,44.251 9.466,45.791 10.445,46.907C11.363,47.952 12.615,48.368 14.375,48.038C16.325,47.673 18.122,46.714 19.581,45.153C20.952,43.685 21.721,42.068 21.795,40.324C21.867,38.62 21.253,37.199 20.086,36.057C18.88,34.876 17.261,34.355 15.292,34.484Z" style="fill:white;fill-rule:nonzero;"/>
            </g>
            <g transform="matrix(0.854848,0,0,0.854848,22.7673,7.87408)">
                <path d="M73.351,14.477L73.862,12.75L74.908,12.75L74.908,10.503L76.808,9.347L76.808,12.75L79.46,12.75L79.46,14.613L76.808,14.613L76.808,19.594C76.805,19.972 76.818,20.355 76.86,20.73C76.888,20.972 76.943,21.233 77.057,21.451C77.14,21.609 77.254,21.721 77.411,21.8C77.632,21.907 77.922,21.932 78.163,21.932C78.3,21.932 78.439,21.92 78.575,21.904C78.754,21.883 78.933,21.852 79.11,21.817L79.562,21.726L79.562,23.613L79.272,23.682C79.06,23.733 78.848,23.775 78.636,23.799C78.459,23.822 78.281,23.836 78.102,23.836C77.572,23.836 77.01,23.769 76.523,23.546C76.09,23.347 75.743,23.046 75.501,22.638C75.243,22.217 75.101,21.73 75.025,21.246C74.932,20.654 74.905,20.045 74.908,19.448L74.908,14.613L73.447,14.613C73.571,14.794 73.684,14.985 73.787,15.185L73.95,15.503L65.986,20.219C66.176,20.525 66.402,20.805 66.671,21.048C67.011,21.355 67.393,21.591 67.822,21.752C68.268,21.918 68.731,21.993 69.206,21.993C69.63,21.993 70.048,21.932 70.453,21.809C70.884,21.677 71.296,21.488 71.684,21.258C72.149,20.986 72.59,20.671 73.011,20.337L73.625,19.85L73.625,22.299L73.471,22.412C72.838,22.88 72.15,23.275 71.411,23.55C70.701,23.809 69.962,23.938 69.205,23.938C68.413,23.935 67.638,23.798 66.903,23.497C66.217,23.214 65.598,22.813 65.075,22.286C64.553,21.763 64.152,21.152 63.871,20.467C63.58,19.75 63.445,18.995 63.441,18.221C63.445,17.442 63.582,16.678 63.882,15.959C64.167,15.276 64.574,14.668 65.101,14.152C65.627,13.628 66.245,13.235 66.932,12.955C67.657,12.66 68.424,12.528 69.207,12.525C70.164,12.528 71.104,12.721 71.94,13.203C72.506,13.533 72.974,13.963 73.351,14.477ZM90.907,19.184L90.907,23.648L89.007,23.886L89.007,8.684L90.907,8.446L90.907,17.2L94.934,12.393L96.551,13.358L92.547,18.162L97.081,22.873L95.622,24.097L90.907,19.184ZM31.307,19.051L31.307,23.624L29.326,24.021L29.326,8.926L32.052,8.926C32.784,8.93 33.52,9.032 34.208,9.287C34.834,9.517 35.398,9.859 35.879,10.325C36.346,10.783 36.7,11.324 36.94,11.934C37.196,12.588 37.302,13.287 37.306,13.989C37.302,14.689 37.195,15.385 36.94,16.039C36.7,16.649 36.346,17.194 35.878,17.652C35.399,18.117 34.833,18.456 34.209,18.69C33.52,18.945 32.784,19.047 32.051,19.051L31.307,19.051ZM39.583,20.219C39.773,20.525 39.999,20.805 40.269,21.048C40.609,21.355 40.99,21.591 41.42,21.752C41.865,21.918 42.329,21.993 42.804,21.993C43.228,21.993 43.645,21.932 44.05,21.809C44.481,21.677 44.893,21.488 45.282,21.258C45.746,20.986 46.187,20.671 46.609,20.337L47.222,19.85L47.222,22.299L47.068,22.412C46.436,22.88 45.747,23.275 45.008,23.55C44.298,23.809 43.559,23.938 42.802,23.938C42.01,23.935 41.235,23.798 40.5,23.497C39.814,23.214 39.195,22.813 38.673,22.286C38.151,21.763 37.75,21.152 37.468,20.467C37.178,19.75 37.042,18.995 37.038,18.221C37.042,17.442 37.179,16.678 37.48,15.959C37.764,15.276 38.172,14.668 38.698,14.152C39.224,13.628 39.843,13.235 40.529,12.955C41.254,12.66 42.022,12.528 42.804,12.525C43.762,12.528 44.701,12.721 45.537,13.203C46.347,13.675 46.956,14.351 47.384,15.185L47.548,15.503L39.583,20.219ZM49.936,13.926C50.211,13.592 50.527,13.292 50.89,13.049C51.569,12.593 52.332,12.382 53.148,12.382L53.972,12.382L53.234,14.44L52.978,14.449C52.01,14.483 51.226,14.837 50.714,15.679C50.074,16.73 49.951,18.267 49.956,19.468L49.956,23.648L48.057,23.886L48.057,12.795L49.936,12.555L49.936,13.926ZM62.913,22.623C62.31,23.042 61.659,23.375 60.961,23.603C60.295,23.82 59.603,23.938 58.901,23.938C58.119,23.935 57.351,23.8 56.626,23.5C55.941,23.218 55.322,22.818 54.797,22.295C54.27,21.774 53.862,21.162 53.578,20.477C53.279,19.76 53.141,18.998 53.137,18.221C53.141,17.442 53.278,16.678 53.578,15.959C53.863,15.276 54.271,14.668 54.797,14.152C55.323,13.628 55.942,13.235 56.628,12.955C57.353,12.66 58.12,12.528 58.901,12.525C59.606,12.522 60.311,12.609 60.986,12.818C61.66,13.026 62.283,13.352 62.856,13.761L63.186,13.997L61.952,15.502L61.665,15.302C61.416,15.128 61.156,14.974 60.885,14.84C60.596,14.699 60.292,14.591 59.98,14.513C59.628,14.425 59.263,14.391 58.903,14.388C58.386,14.391 57.885,14.488 57.409,14.692C56.949,14.89 56.538,15.163 56.184,15.518C55.832,15.871 55.556,16.279 55.36,16.738C55.157,17.212 55.06,17.708 55.057,18.22C55.06,18.735 55.157,19.23 55.36,19.704C55.556,20.163 55.832,20.572 56.184,20.925C56.538,21.28 56.949,21.553 57.408,21.751C57.885,21.955 58.386,22.052 58.903,22.055C59.363,22.055 59.821,21.965 60.257,21.821C60.781,21.649 61.274,21.389 61.729,21.078L62.015,20.882L63.251,22.388L62.913,22.623ZM85.845,23.135C85.611,23.309 85.36,23.461 85.092,23.583C84.565,23.826 84.007,23.938 83.426,23.938C82.871,23.934 82.33,23.831 81.816,23.614C81.327,23.402 80.886,23.109 80.514,22.729C80.136,22.35 79.845,21.913 79.639,21.422C79.42,20.913 79.319,20.371 79.315,19.815C79.319,19.262 79.422,18.722 79.638,18.212C79.849,17.719 80.141,17.28 80.52,16.904C80.897,16.523 81.335,16.23 81.828,16.018C82.335,15.802 82.875,15.698 83.427,15.695C83.988,15.695 84.534,15.807 85.053,16.025C85.312,16.137 85.555,16.275 85.783,16.435L85.783,15.971C85.786,15.526 85.711,15.014 85.376,14.691C85.026,14.355 84.44,14.286 83.979,14.286C83.512,14.286 83.044,14.36 82.592,14.482C82.03,14.627 81.477,14.829 80.942,15.054L80.168,15.379L80.946,13.076L81.123,13.016C81.625,12.844 82.14,12.705 82.661,12.616C83.137,12.531 83.618,12.484 84.101,12.484C84.774,12.484 85.496,12.571 86.106,12.875C86.652,13.147 87.062,13.563 87.321,14.117C87.602,14.72 87.686,15.416 87.683,16.075L87.683,23.64L85.845,23.918L85.845,23.135ZM102.861,23.135C102.627,23.309 102.377,23.461 102.109,23.583C101.582,23.826 101.023,23.938 100.443,23.938C99.888,23.934 99.346,23.831 98.833,23.614C98.344,23.402 97.903,23.109 97.531,22.729C97.153,22.35 96.862,21.913 96.655,21.422C96.436,20.913 96.336,20.371 96.332,19.815C96.336,19.262 96.439,18.722 96.655,18.212C96.866,17.719 97.158,17.28 97.537,16.904C97.914,16.523 98.352,16.23 98.844,16.018C99.352,15.802 99.892,15.698 100.444,15.695C101.005,15.695 101.551,15.807 102.069,16.025C102.328,16.137 102.572,16.275 102.8,16.435L102.8,15.971C102.803,15.526 102.728,15.014 102.393,14.691C102.043,14.355 101.457,14.286 100.996,14.286C100.529,14.286 100.061,14.36 99.609,14.482C99.047,14.627 98.494,14.829 97.959,15.054L97.185,15.379L97.963,13.076L98.14,13.016C98.642,12.844 99.156,12.705 99.678,12.616C100.154,12.531 100.635,12.484 101.118,12.484C101.791,12.484 102.513,12.571 103.123,12.875C103.669,13.147 104.079,13.563 104.338,14.117C104.619,14.72 104.703,15.416 104.7,16.075L104.7,23.64L102.861,23.918L102.861,23.135ZM107.883,13.68C108.154,13.415 108.456,13.182 108.792,12.996C109.421,12.642 110.111,12.484 110.83,12.484C111.556,12.484 112.27,12.623 112.907,12.983C113.52,13.33 113.975,13.836 114.285,14.469C114.635,15.184 114.756,15.999 114.759,16.789L114.759,23.648L112.88,23.887L112.88,17.363C112.88,16.573 112.776,15.59 112.281,14.941C111.856,14.383 111.225,14.204 110.547,14.204C110.201,14.207 109.872,14.275 109.555,14.408C109.235,14.548 108.951,14.738 108.701,14.985C108.446,15.235 108.247,15.528 108.106,15.859C107.953,16.206 107.886,16.577 107.883,16.954L107.883,23.648L105.983,23.886L105.983,12.795L107.883,12.556L107.883,13.68ZM31.307,10.871L31.307,17.106L32.029,17.106C32.643,17.103 33.281,17.011 33.832,16.722C34.298,16.482 34.655,16.14 34.905,15.679C35.185,15.161 35.284,14.572 35.284,13.988C35.284,13.405 35.185,12.816 34.905,12.298C34.655,11.837 34.298,11.495 33.832,11.254C33.281,10.966 32.643,10.873 32.03,10.871L31.307,10.871ZM39.001,18.457L44.765,15.015C44.581,14.864 44.376,14.743 44.153,14.649C43.727,14.474 43.262,14.408 42.805,14.408C42.296,14.411 41.8,14.502 41.329,14.694C40.875,14.881 40.471,15.147 40.119,15.491C39.766,15.835 39.496,16.237 39.302,16.691C39.095,17.17 39.002,17.682 38.999,18.202C38.999,18.288 39,18.373 39.001,18.457ZM65.404,18.457L71.167,15.015C70.984,14.864 70.779,14.743 70.555,14.649C70.129,14.474 69.665,14.408 69.208,14.408C68.699,14.411 68.203,14.502 67.731,14.694C67.277,14.881 66.874,15.147 66.522,15.491C66.169,15.835 65.899,16.237 65.704,16.691C65.498,17.17 65.405,17.682 65.402,18.202C65.402,18.288 65.402,18.373 65.404,18.457ZM81.256,19.817C81.256,20.122 81.308,20.417 81.422,20.699C81.531,20.969 81.684,21.207 81.888,21.414C82.096,21.626 82.339,21.783 82.613,21.896C82.918,22.022 83.244,22.072 83.57,22.075C83.989,22.073 84.398,21.993 84.766,21.786C85.098,21.6 85.354,21.34 85.538,21.006C85.741,20.64 85.822,20.231 85.824,19.818C85.822,19.403 85.739,18.999 85.538,18.633C85.355,18.3 85.102,18.04 84.77,17.852C84.408,17.644 84.005,17.56 83.593,17.558C83.258,17.56 82.923,17.61 82.612,17.738C82.339,17.849 82.092,18.005 81.885,18.218C81.682,18.424 81.526,18.661 81.42,18.93C81.308,19.215 81.256,19.511 81.256,19.817ZM98.273,19.817C98.273,20.122 98.325,20.417 98.438,20.699C98.548,20.969 98.701,21.207 98.905,21.414C99.113,21.626 99.356,21.783 99.63,21.896C99.935,22.022 100.261,22.072 100.586,22.075C101.005,22.073 101.415,21.993 101.783,21.786C102.115,21.6 102.371,21.34 102.555,21.006C102.758,20.64 102.838,20.231 102.841,19.818C102.838,19.403 102.756,18.999 102.555,18.633C102.372,18.3 102.119,18.04 101.787,17.852C101.425,17.644 101.021,17.56 100.61,17.558C100.275,17.56 99.94,17.61 99.629,17.738C99.356,17.849 99.108,18.005 98.902,18.218C98.699,18.424 98.543,18.661 98.437,18.93C98.325,19.215 98.273,19.511 98.273,19.817Z" style="fill:rgb(166,206,56);"/>
            </g>
            <g transform="matrix(0.854848,0,0,0.854848,22.7673,7.87408)">
                <path d="M35.971,34.477C36.456,34.771 36.877,35.153 37.199,35.638C37.654,36.327 37.836,37.121 37.836,37.94C37.836,38.508 37.743,39.063 37.533,39.592C37.325,40.104 37.021,40.553 36.619,40.93C36.193,41.333 35.682,41.616 35.132,41.812C34.493,42.038 33.808,42.12 33.133,42.123L29.326,42.123L29.326,27.357L32.357,27.357C33.63,27.357 35.1,27.544 36.141,28.345C37.099,29.08 37.469,30.149 37.469,31.335C37.469,32.074 37.315,32.798 36.932,33.435C36.682,33.855 36.355,34.198 35.971,34.477ZM44.629,41.566C44.395,41.74 44.144,41.891 43.876,42.014C43.349,42.256 42.791,42.369 42.21,42.369C41.655,42.365 41.114,42.262 40.6,42.045C40.111,41.833 39.67,41.54 39.298,41.159C38.921,40.781 38.629,40.344 38.423,39.852C38.204,39.344 38.103,38.801 38.099,38.246C38.103,37.692 38.207,37.153 38.423,36.642C38.633,36.149 38.926,35.711 39.305,35.335C39.681,34.953 40.119,34.66 40.612,34.449C41.119,34.233 41.659,34.129 42.211,34.125C42.773,34.125 43.318,34.238 43.837,34.456C44.096,34.568 44.339,34.705 44.568,34.865L44.568,34.401C44.57,33.957 44.496,33.445 44.16,33.122C43.81,32.785 43.224,32.716 42.763,32.716C42.296,32.716 41.828,32.791 41.376,32.912C40.814,33.058 40.261,33.26 39.726,33.484L38.953,33.809L39.73,31.506L39.907,31.446C40.41,31.275 40.924,31.136 41.446,31.047C41.921,30.962 42.403,30.915 42.885,30.915C43.558,30.915 44.28,31.002 44.89,31.305C45.436,31.577 45.847,31.994 46.105,32.548C46.386,33.15 46.47,33.847 46.467,34.505L46.467,42.07L44.629,42.349L44.629,41.566ZM49.65,32.11C49.921,31.845 50.223,31.613 50.559,31.427C51.188,31.072 51.878,30.915 52.598,30.915C53.323,30.915 54.037,31.054 54.674,31.414C55.288,31.76 55.742,32.266 56.052,32.899C56.403,33.614 56.523,34.429 56.526,35.22L56.526,42.078L54.647,42.318L54.647,35.793C54.647,35.003 54.544,34.021 54.048,33.372C53.623,32.813 52.992,32.635 52.314,32.635C51.968,32.638 51.639,32.705 51.322,32.839C51.002,32.978 50.718,33.169 50.468,33.416C50.213,33.665 50.015,33.959 49.873,34.289C49.72,34.637 49.653,35.007 49.65,35.385L49.65,42.079L47.751,42.317L47.751,31.225L49.65,30.987L49.65,32.11ZM66.89,40.771C66.502,41.158 66.065,41.491 65.575,41.752C64.793,42.166 63.949,42.365 63.064,42.369C62.281,42.365 61.514,42.23 60.789,41.931C60.103,41.649 59.485,41.248 58.959,40.725C58.432,40.204 58.024,39.593 57.74,38.908C57.441,38.191 57.303,37.429 57.3,36.651C57.303,35.876 57.441,35.116 57.74,34.4C58.024,33.714 58.433,33.11 58.959,32.589C59.485,32.066 60.104,31.669 60.79,31.389C61.516,31.094 62.282,30.959 63.064,30.956C63.963,30.956 64.826,31.152 65.62,31.576C66.098,31.832 66.519,32.157 66.89,32.537L66.89,27.116L68.769,26.876L68.769,42.078L66.89,42.318L66.89,40.771ZM76.887,41.194C76.616,41.459 76.314,41.691 75.978,41.877C75.349,42.231 74.659,42.389 73.94,42.389C73.213,42.389 72.496,42.25 71.857,41.89C71.244,41.544 70.786,41.038 70.473,40.407C70.114,39.693 69.994,38.877 69.991,38.084L69.991,31.225L71.89,30.987L71.89,37.511C71.89,38.298 71.992,39.283 72.48,39.934C72.902,40.492 73.526,40.669 74.203,40.669C74.551,40.666 74.88,40.598 75.2,40.464C75.521,40.326 75.809,40.133 76.06,39.886C76.318,39.637 76.517,39.343 76.662,39.013C76.817,38.666 76.884,38.296 76.887,37.919L76.887,31.225L78.787,30.987L78.787,42.079L76.887,42.317L76.887,41.194ZM81.97,32.11C82.241,31.845 82.543,31.613 82.879,31.427C83.508,31.072 84.198,30.915 84.917,30.915C85.643,30.915 86.357,31.054 86.994,31.414C87.607,31.76 88.061,32.266 88.372,32.899C88.722,33.614 88.843,34.429 88.846,35.22L88.846,42.078L86.967,42.318L86.967,35.793C86.967,35.003 86.863,34.021 86.368,33.372C85.943,32.813 85.312,32.635 84.634,32.635C84.288,32.638 83.959,32.705 83.642,32.839C83.321,32.978 83.037,33.169 82.788,33.416C82.533,33.665 82.334,33.959 82.193,34.289C82.04,34.637 81.973,35.007 81.97,35.385L81.97,42.079L80.07,42.317L80.07,31.225L81.97,30.987L81.97,32.11ZM97.037,38.223C97.317,38.397 97.58,38.6 97.817,38.833C98.195,39.209 98.498,39.646 98.702,40.139C98.908,40.632 99.007,41.149 99.007,41.684C99.003,42.272 98.883,42.842 98.631,43.371C98.384,43.901 98.027,44.358 97.588,44.746C97.122,45.152 96.582,45.449 96.002,45.656C95.36,45.889 94.68,45.985 93.997,45.988C93.347,45.988 92.705,45.89 92.09,45.678C91.485,45.473 90.929,45.167 90.426,44.772C89.904,44.357 89.461,43.859 89.091,43.304L88.878,42.984L90.561,41.893L90.765,42.215C91.133,42.791 91.598,43.286 92.19,43.631C92.748,43.953 93.352,44.105 93.995,44.105C94.414,44.102 94.827,44.043 95.224,43.907C95.58,43.784 95.91,43.609 96.203,43.372C96.466,43.157 96.683,42.902 96.842,42.6C96.992,42.312 97.064,42.006 97.067,41.684C97.064,41.339 96.992,41.009 96.837,40.699C96.68,40.38 96.463,40.107 96.196,39.875C95.903,39.625 95.575,39.438 95.215,39.306C94.822,39.164 94.412,39.1 93.996,39.097C93.609,39.097 93.224,39.153 92.849,39.252C92.407,39.363 91.976,39.528 91.563,39.717L90.724,40.101L91.43,38.24C90.916,37.898 90.474,37.47 90.148,36.935C89.782,36.336 89.602,35.678 89.599,34.974C89.602,34.42 89.715,33.882 89.952,33.38C90.187,32.89 90.514,32.463 90.921,32.104C91.343,31.731 91.832,31.455 92.36,31.258C92.93,31.05 93.532,30.959 94.139,30.956C94.322,30.956 94.507,30.964 94.693,30.973C94.938,30.989 95.186,31.012 95.436,31.041C95.485,31.048 95.538,31.055 95.588,31.055L95.608,31.055C95.669,31.058 95.73,31.058 95.79,31.058C96.256,31.055 96.721,31 97.177,30.915C97.728,30.808 98.275,30.681 98.819,30.539L99.494,30.362L99.01,31.816C98.967,31.959 98.907,32.096 98.824,32.22C98.73,32.363 98.603,32.47 98.449,32.539C98.315,32.601 98.166,32.626 98.019,32.633C98.154,32.787 98.276,32.954 98.382,33.135C98.717,33.698 98.864,34.322 98.864,34.975C98.864,35.479 98.773,35.968 98.58,36.433C98.386,36.899 98.101,37.309 97.742,37.662C97.527,37.875 97.289,38.06 97.037,38.223ZM31.307,33.675L32.764,33.675C33.276,33.673 33.833,33.608 34.303,33.39C34.664,33.223 34.966,32.98 35.171,32.633C35.391,32.265 35.467,31.841 35.467,31.417C35.467,30.794 35.301,30.225 34.814,29.816C34.258,29.35 33.421,29.242 32.724,29.24L31.307,29.24L31.307,33.675ZM31.307,40.199L32.888,40.199C33.618,40.201 34.52,40.104 35.116,39.639C35.64,39.228 35.794,38.6 35.794,37.961C35.794,37.508 35.714,37.059 35.493,36.662C35.289,36.303 35.002,36.041 34.633,35.857C34.186,35.634 33.666,35.562 33.172,35.559L31.307,35.559L31.307,40.199ZM40.04,38.247C40.04,38.552 40.092,38.848 40.206,39.13C40.316,39.399 40.468,39.638 40.672,39.845C40.88,40.056 41.124,40.214 41.397,40.326C41.702,40.453 42.028,40.503 42.354,40.506C42.773,40.503 43.182,40.424 43.55,40.217C43.882,40.03 44.138,39.771 44.323,39.437C44.526,39.071 44.606,38.661 44.608,38.249C44.606,37.833 44.523,37.429 44.322,37.064C44.139,36.731 43.886,36.47 43.554,36.282C43.192,36.074 42.789,35.991 42.377,35.989C42.042,35.991 41.707,36.041 41.396,36.168C41.124,36.28 40.876,36.436 40.669,36.649C40.467,36.855 40.31,37.092 40.204,37.36C40.092,37.645 40.04,37.941 40.04,38.247ZM59.22,36.651C59.223,37.166 59.318,37.67 59.522,38.145C59.719,38.604 59.993,39.012 60.345,39.364C60.7,39.714 61.111,39.99 61.57,40.185C62.047,40.389 62.549,40.482 63.064,40.485C63.579,40.482 64.081,40.389 64.556,40.185C65.014,39.991 65.421,39.716 65.772,39.367C66.122,39.013 66.396,38.605 66.59,38.145C66.794,37.671 66.886,37.167 66.89,36.653C66.886,36.137 66.794,35.634 66.59,35.157C66.396,34.699 66.122,34.291 65.773,33.939C65.421,33.588 65.014,33.313 64.555,33.119C64.081,32.915 63.579,32.822 63.066,32.819C62.549,32.822 62.047,32.915 61.57,33.119C61.111,33.314 60.7,33.59 60.346,33.939C59.993,34.292 59.719,34.7 59.522,35.159C59.318,35.634 59.223,36.138 59.22,36.651ZM91.539,34.976C91.539,35.281 91.604,35.572 91.728,35.848C91.86,36.129 92.044,36.37 92.274,36.578C92.522,36.802 92.813,36.967 93.125,37.084C93.484,37.216 93.861,37.272 94.24,37.275C94.615,37.272 94.991,37.22 95.344,37.087C95.655,36.971 95.944,36.808 96.192,36.585C96.422,36.378 96.604,36.137 96.734,35.857C96.86,35.576 96.924,35.285 96.924,34.978C96.921,34.688 96.859,34.41 96.726,34.15C96.592,33.882 96.402,33.651 96.171,33.459C95.918,33.245 95.629,33.087 95.314,32.977C94.97,32.852 94.604,32.801 94.241,32.798C93.873,32.798 93.51,32.853 93.162,32.975C92.846,33.084 92.557,33.239 92.3,33.451C92.067,33.645 91.876,33.874 91.738,34.147C91.603,34.407 91.542,34.686 91.539,34.976Z" style="fill:rgb(0,179,240);"/>
            </g>
            <g transform="matrix(0.854848,0,0,0.854848,22.7673,7.87408)">
                <path d="M33.632,51.246L33.387,52.349L32.998,52.349C32.975,52.015 32.904,51.774 32.779,51.626C32.656,51.478 32.458,51.404 32.185,51.404C31.957,51.404 31.742,51.471 31.542,51.606C31.341,51.739 31.152,51.934 30.973,52.189C30.794,52.442 30.638,52.74 30.505,53.081C30.372,53.421 30.271,53.769 30.2,54.123C30.129,54.478 30.095,54.798 30.095,55.083C30.095,55.526 30.167,55.852 30.313,56.059C30.457,56.266 30.685,56.37 30.992,56.37C31.196,56.37 31.374,56.34 31.525,56.279C31.678,56.218 31.82,56.114 31.953,55.969C32.085,55.824 32.216,55.621 32.347,55.36L32.737,55.36L32.49,56.518C32.212,56.593 31.946,56.647 31.688,56.681C31.431,56.713 31.166,56.73 30.895,56.73C30.56,56.73 30.274,56.66 30.038,56.52C29.802,56.379 29.624,56.177 29.505,55.912C29.386,55.647 29.326,55.329 29.326,54.957C29.326,54.762 29.34,54.571 29.368,54.386C29.4,54.158 29.451,53.911 29.522,53.641C29.611,53.307 29.723,53.003 29.859,52.728C30.004,52.438 30.172,52.18 30.358,51.958C30.535,51.752 30.726,51.58 30.931,51.44C31.122,51.313 31.327,51.214 31.546,51.143C31.765,51.072 31.998,51.037 32.246,51.037C32.491,51.037 32.72,51.052 32.93,51.082C33.141,51.112 33.373,51.167 33.632,51.246ZM36.497,55.853C36.296,56.073 36.104,56.247 35.92,56.375C35.735,56.503 35.551,56.593 35.366,56.647C35.183,56.702 34.979,56.73 34.757,56.73C34.543,56.73 34.359,56.695 34.203,56.625C34.049,56.556 33.922,56.461 33.82,56.34C33.718,56.219 33.643,56.076 33.594,55.909C33.546,55.741 33.521,55.56 33.521,55.364C33.521,55.073 33.573,54.762 33.678,54.429C33.782,54.097 33.94,53.798 34.151,53.534C34.363,53.268 34.616,53.064 34.911,52.918C35.206,52.773 35.521,52.699 35.855,52.699C36.182,52.699 36.428,52.766 36.593,52.899C36.756,53.033 36.839,53.24 36.839,53.523C36.839,53.984 36.622,54.331 36.19,54.561C35.757,54.792 35.116,54.907 34.264,54.907C34.233,55.07 34.216,55.247 34.216,55.438C34.216,55.723 34.272,55.93 34.382,56.059C34.493,56.188 34.675,56.252 34.927,56.252C35.177,56.252 35.404,56.198 35.606,56.09C35.81,55.981 36.022,55.815 36.244,55.589L36.497,55.853ZM34.334,54.561C34.584,54.559 34.803,54.545 34.99,54.52C35.179,54.493 35.341,54.458 35.476,54.412C35.612,54.368 35.724,54.315 35.814,54.253C35.903,54.19 35.974,54.12 36.027,54.047C36.079,53.972 36.117,53.892 36.136,53.811C36.157,53.727 36.167,53.641 36.167,53.551C36.167,53.386 36.129,53.255 36.052,53.162C35.974,53.069 35.86,53.022 35.708,53.022C35.519,53.022 35.331,53.09 35.15,53.228C34.967,53.364 34.806,53.549 34.666,53.781C34.525,54.013 34.416,54.274 34.334,54.561ZM39.737,55.915C39.514,56.183 39.295,56.386 39.078,56.524C38.861,56.662 38.631,56.73 38.387,56.73C38.1,56.73 37.886,56.656 37.745,56.51C37.603,56.363 37.534,56.15 37.534,55.87C37.534,55.699 37.557,55.507 37.606,55.296L38.111,53.181L37.504,53.181L37.549,52.973C37.71,52.954 37.836,52.919 37.929,52.869C38.023,52.819 38.101,52.752 38.165,52.669C38.229,52.587 38.289,52.478 38.343,52.346C38.397,52.213 38.465,52.018 38.545,51.763L39.105,51.763L38.882,52.769L40.172,52.769L40.083,53.181L38.79,53.181L38.4,54.762C38.291,55.201 38.236,55.531 38.236,55.747C38.236,55.913 38.272,56.038 38.344,56.124C38.416,56.209 38.521,56.252 38.659,56.252C38.784,56.252 38.914,56.204 39.051,56.108C39.189,56.012 39.337,55.866 39.501,55.67L39.737,55.915ZM43.2,52.969L43.574,52.699L43.834,52.764L43.212,55.532C43.174,55.695 43.148,55.82 43.134,55.909C43.122,55.996 43.115,56.069 43.115,56.126C43.115,56.237 43.145,56.318 43.207,56.37C43.27,56.419 43.389,56.451 43.566,56.464L43.529,56.664L42.367,56.664L42.622,55.642L42.57,55.625C42.31,56.005 42.063,56.285 41.83,56.461C41.597,56.636 41.35,56.725 41.09,56.725C40.792,56.725 40.562,56.613 40.396,56.387C40.233,56.162 40.151,55.845 40.151,55.438C40.151,55.177 40.181,54.916 40.241,54.653C40.301,54.392 40.389,54.143 40.51,53.908C40.631,53.672 40.775,53.466 40.943,53.286C41.111,53.107 41.307,52.965 41.527,52.859C41.748,52.752 41.988,52.699 42.249,52.699C42.417,52.699 42.576,52.72 42.729,52.759C42.88,52.798 43.037,52.869 43.2,52.969ZM42.843,54.183C42.866,54.072 42.883,53.975 42.891,53.894C42.9,53.812 42.904,53.724 42.904,53.629C42.904,53.417 42.858,53.262 42.769,53.166C42.679,53.07 42.531,53.022 42.322,53.022C42.209,53.022 42.099,53.04 41.996,53.076C41.894,53.114 41.79,53.175 41.684,53.259C41.577,53.346 41.477,53.457 41.38,53.596C41.284,53.735 41.197,53.904 41.118,54.101C41.04,54.3 40.979,54.513 40.936,54.739C40.892,54.966 40.871,55.186 40.871,55.401C40.871,55.684 40.909,55.895 40.986,56.034C41.064,56.175 41.193,56.244 41.375,56.244C41.458,56.244 41.546,56.226 41.637,56.187C41.727,56.15 41.828,56.08 41.939,55.977C42.05,55.875 42.177,55.725 42.318,55.528C42.445,55.346 42.546,55.165 42.62,54.987C42.696,54.809 42.757,54.601 42.805,54.358L42.843,54.183ZM45.683,54.395L45.813,54.395C45.897,54.395 45.988,54.378 46.085,54.346C46.182,54.314 46.288,54.262 46.399,54.193C46.51,54.123 46.659,54.015 46.846,53.864C46.987,53.75 47.092,53.653 47.159,53.574C47.226,53.493 47.273,53.424 47.296,53.364C47.322,53.304 47.334,53.247 47.334,53.193C47.334,53.06 47.241,52.984 47.057,52.969L47.102,52.769L48.419,52.769L48.496,52.969C48.271,53.172 48.032,53.373 47.781,53.567L46.752,54.371L47.362,55.915C47.416,56.054 47.471,56.159 47.528,56.234C47.585,56.309 47.652,56.364 47.726,56.4C47.8,56.435 47.896,56.457 48.013,56.464L47.968,56.664L46.882,56.664L46.29,54.99C46.25,54.884 46.219,54.812 46.191,54.774C46.165,54.735 46.132,54.709 46.098,54.692C46.063,54.675 46.006,54.667 45.927,54.667L45.626,54.667L45.202,56.664L44.501,56.664L45.545,52.007C45.575,51.872 45.595,51.773 45.608,51.711C45.621,51.651 45.629,51.594 45.634,51.542C45.64,51.491 45.642,51.445 45.642,51.404C45.642,51.29 45.608,51.21 45.538,51.164C45.469,51.118 45.346,51.092 45.167,51.086L45.216,50.874L46.243,50.838L46.48,50.838L45.683,54.395ZM53.56,51.037C53.896,51.037 54.187,51.103 54.433,51.234C54.677,51.363 54.866,51.561 54.998,51.827C55.129,52.094 55.195,52.422 55.195,52.813C55.195,53.235 55.123,53.709 54.98,54.233C54.835,54.759 54.627,55.215 54.355,55.599C54.083,55.983 53.771,56.268 53.423,56.454C53.073,56.641 52.707,56.734 52.325,56.734C51.945,56.734 51.632,56.66 51.383,56.514C51.136,56.366 50.953,56.162 50.837,55.901C50.72,55.638 50.662,55.329 50.662,54.973C50.662,54.628 50.712,54.241 50.81,53.814C50.91,53.386 51.045,53 51.216,52.655C51.389,52.31 51.594,52.016 51.831,51.774C52.067,51.534 52.332,51.35 52.625,51.225C52.918,51.1 53.23,51.037 53.56,51.037ZM54.422,52.642C54.422,51.812 54.119,51.396 53.516,51.396C53.369,51.396 53.231,51.419 53.101,51.47C52.95,51.53 52.804,51.617 52.667,51.734C52.512,51.868 52.368,52.037 52.235,52.243C52.078,52.488 51.941,52.766 51.824,53.079C51.703,53.404 51.605,53.756 51.532,54.134C51.461,54.495 51.426,54.822 51.426,55.116C51.426,55.539 51.502,55.855 51.656,56.063C51.809,56.271 52.038,56.375 52.341,56.375C52.585,56.375 52.817,56.3 53.036,56.151C53.308,55.969 53.551,55.68 53.769,55.283C54.002,54.856 54.18,54.336 54.308,53.723C54.384,53.361 54.422,53.001 54.422,52.642ZM59.166,56.664L57.885,56.664L58.401,54.595C58.434,54.461 58.465,54.315 58.498,54.154C58.528,53.994 58.543,53.851 58.543,53.723C58.543,53.53 58.511,53.39 58.445,53.307C58.378,53.222 58.274,53.181 58.134,53.181C58.02,53.181 57.897,53.225 57.765,53.313C57.634,53.401 57.497,53.534 57.353,53.709C57.21,53.883 57.088,54.061 56.989,54.241C56.891,54.423 56.813,54.642 56.759,54.9L56.39,56.664L55.686,56.664L56.304,53.881C56.317,53.819 56.336,53.727 56.359,53.605C56.381,53.482 56.394,53.38 56.394,53.299C56.394,53.222 56.381,53.164 56.359,53.122C56.336,53.079 56.297,53.048 56.241,53.027C56.186,53.008 56.092,52.993 55.958,52.984L56.007,52.769L56.929,52.732L57.161,52.732L56.889,53.792L56.938,53.807C57.204,53.434 57.46,53.155 57.707,52.975C57.954,52.794 58.199,52.704 58.446,52.704C58.71,52.704 58.908,52.777 59.044,52.922C59.179,53.068 59.247,53.282 59.247,53.567C59.247,53.666 59.238,53.771 59.22,53.887C59.203,54.002 59.183,54.105 59.162,54.196L58.82,55.646C58.774,55.841 58.751,55.996 58.751,56.111C58.751,56.192 58.765,56.255 58.792,56.301C58.819,56.347 58.861,56.384 58.918,56.406C58.975,56.432 59.068,56.451 59.198,56.464L59.166,56.664ZM61.841,50.838L62.08,50.838L61.024,55.646C60.994,55.775 60.974,55.874 60.967,55.941C60.959,56.008 60.955,56.063 60.955,56.111C60.955,56.192 60.969,56.255 60.995,56.301C61.023,56.347 61.065,56.384 61.121,56.406C61.178,56.432 61.271,56.451 61.401,56.464L61.37,56.664L60.101,56.664L61.149,51.988C61.177,51.868 61.196,51.777 61.205,51.717C61.217,51.658 61.225,51.601 61.231,51.546C61.236,51.492 61.239,51.445 61.239,51.404C61.239,51.322 61.224,51.261 61.195,51.218C61.164,51.177 61.121,51.146 61.065,51.127C61.01,51.108 60.912,51.094 60.767,51.086L60.816,50.874L61.841,50.838ZM64.284,51.172L64.097,51.962L63.377,51.962L63.564,51.172L64.284,51.172ZM63.28,55.646C63.251,55.784 63.231,55.885 63.223,55.95C63.215,56.014 63.21,56.066 63.21,56.111C63.21,56.192 63.224,56.255 63.251,56.301C63.278,56.347 63.32,56.384 63.377,56.406C63.434,56.432 63.528,56.451 63.657,56.464L63.621,56.664L62.362,56.664L62.975,53.918C63.011,53.76 63.034,53.635 63.048,53.541C63.062,53.447 63.069,53.37 63.069,53.307C63.069,53.228 63.057,53.166 63.034,53.123C63.011,53.081 62.972,53.047 62.918,53.026C62.864,53.003 62.771,52.99 62.638,52.984L62.682,52.769L63.674,52.732L63.914,52.732L63.28,55.646ZM68.098,56.664L66.817,56.664L67.333,54.595C67.365,54.461 67.397,54.315 67.429,54.154C67.46,53.994 67.475,53.851 67.475,53.723C67.475,53.53 67.443,53.39 67.377,53.307C67.31,53.222 67.206,53.181 67.066,53.181C66.952,53.181 66.828,53.225 66.696,53.313C66.566,53.401 66.429,53.534 66.284,53.709C66.142,53.883 66.019,54.061 65.921,54.241C65.823,54.423 65.745,54.642 65.69,54.9L65.321,56.664L64.618,56.664L65.236,53.881C65.249,53.819 65.267,53.727 65.291,53.605C65.313,53.482 65.326,53.38 65.326,53.299C65.326,53.222 65.313,53.164 65.291,53.122C65.267,53.079 65.229,53.048 65.173,53.027C65.118,53.008 65.023,52.993 64.89,52.984L64.938,52.769L65.861,52.732L66.093,52.732L65.821,53.792L65.87,53.807C66.136,53.434 66.391,53.155 66.638,52.975C66.885,52.794 67.131,52.704 67.378,52.704C67.642,52.704 67.84,52.777 67.976,52.922C68.11,53.068 68.179,53.282 68.179,53.567C68.179,53.666 68.17,53.771 68.152,53.887C68.135,54.002 68.115,54.105 68.094,54.196L67.752,55.646C67.706,55.841 67.683,55.996 67.683,56.111C67.683,56.192 67.697,56.255 67.723,56.301C67.751,56.347 67.792,56.384 67.85,56.406C67.907,56.432 68,56.451 68.13,56.464L68.098,56.664ZM72.029,55.853C71.828,56.073 71.636,56.247 71.452,56.375C71.267,56.503 71.083,56.593 70.898,56.647C70.715,56.702 70.511,56.73 70.289,56.73C70.075,56.73 69.891,56.695 69.735,56.625C69.581,56.556 69.453,56.461 69.352,56.34C69.249,56.219 69.174,56.076 69.126,55.909C69.077,55.741 69.053,55.56 69.053,55.364C69.053,55.073 69.105,54.762 69.209,54.429C69.313,54.097 69.472,53.798 69.682,53.534C69.895,53.268 70.148,53.064 70.442,52.918C70.738,52.773 71.053,52.699 71.386,52.699C71.714,52.699 71.959,52.766 72.125,52.899C72.288,53.033 72.37,53.24 72.37,53.523C72.37,53.984 72.154,54.331 71.722,54.561C71.289,54.792 70.648,54.907 69.796,54.907C69.764,55.07 69.748,55.247 69.748,55.438C69.748,55.723 69.803,55.93 69.914,56.059C70.025,56.188 70.207,56.252 70.459,56.252C70.709,56.252 70.936,56.198 71.138,56.09C71.342,55.981 71.554,55.815 71.776,55.589L72.029,55.853ZM69.865,54.561C70.115,54.559 70.335,54.545 70.522,54.52C70.711,54.493 70.873,54.458 71.007,54.412C71.144,54.368 71.256,54.315 71.346,54.253C71.435,54.19 71.506,54.12 71.558,54.047C71.611,53.972 71.649,53.892 71.668,53.811C71.689,53.727 71.698,53.641 71.698,53.551C71.698,53.386 71.661,53.255 71.584,53.162C71.506,53.069 71.392,53.022 71.239,53.022C71.05,53.022 70.863,53.09 70.681,53.228C70.498,53.364 70.337,53.549 70.198,53.781C70.057,54.013 69.948,54.274 69.865,54.561ZM77.996,53.816C78.248,53.916 78.441,54.059 78.577,54.246C78.713,54.432 78.781,54.644 78.781,54.88C78.781,55.159 78.73,55.41 78.628,55.631C78.526,55.853 78.366,56.047 78.145,56.212C77.926,56.378 77.675,56.494 77.39,56.563C77.104,56.631 76.755,56.664 76.337,56.664L74.528,56.664L74.572,56.464C74.677,56.448 74.753,56.422 74.804,56.385C74.856,56.349 74.9,56.297 74.935,56.232C74.969,56.168 75.003,56.087 75.031,55.994C75.062,55.901 75.107,55.719 75.166,55.45L75.857,52.313C75.917,52.041 75.947,51.826 75.947,51.669C75.947,51.535 75.916,51.443 75.853,51.392C75.791,51.341 75.689,51.31 75.548,51.303L75.594,51.103L77.606,51.103C78.012,51.103 78.338,51.146 78.582,51.231C78.828,51.317 79.008,51.442 79.124,51.607C79.239,51.773 79.297,51.982 79.297,52.23C79.297,52.587 79.188,52.897 78.971,53.162C78.755,53.427 78.433,53.629 78.004,53.771L77.996,53.816ZM76.873,53.596C77.156,53.596 77.383,53.577 77.554,53.539C77.726,53.502 77.866,53.445 77.975,53.368C78.084,53.292 78.18,53.202 78.266,53.101C78.351,53 78.419,52.879 78.469,52.741C78.52,52.602 78.545,52.439 78.545,52.251C78.545,52.135 78.524,52.026 78.484,51.923C78.442,51.822 78.373,51.735 78.275,51.663C78.174,51.591 78.061,51.539 77.933,51.507C77.804,51.477 77.632,51.461 77.418,51.461C77.182,51.461 76.963,51.466 76.759,51.474L76.3,53.596L76.873,53.596ZM75.711,56.289C75.923,56.3 76.121,56.306 76.304,56.306C76.714,56.306 77.03,56.254 77.253,56.151C77.478,56.048 77.658,55.88 77.797,55.646C77.934,55.412 78.004,55.132 78.004,54.806C78.004,54.629 77.969,54.481 77.9,54.358C77.83,54.236 77.721,54.139 77.571,54.065C77.421,53.991 77.214,53.955 76.951,53.955L76.215,53.955L75.711,56.289ZM82.63,55.853C82.429,56.073 82.237,56.247 82.053,56.375C81.868,56.503 81.684,56.593 81.499,56.647C81.316,56.702 81.112,56.73 80.89,56.73C80.676,56.73 80.492,56.695 80.336,56.625C80.182,56.556 80.054,56.461 79.953,56.34C79.851,56.219 79.776,56.076 79.727,55.909C79.679,55.741 79.654,55.56 79.654,55.364C79.654,55.073 79.706,54.762 79.81,54.429C79.914,54.097 80.073,53.798 80.284,53.534C80.496,53.268 80.749,53.064 81.044,52.918C81.339,52.773 81.654,52.699 81.987,52.699C82.315,52.699 82.561,52.766 82.726,52.899C82.889,53.033 82.971,53.24 82.971,53.523C82.971,53.984 82.755,54.331 82.323,54.561C81.89,54.792 81.249,54.907 80.397,54.907C80.366,55.07 80.349,55.247 80.349,55.438C80.349,55.723 80.404,55.93 80.515,56.059C80.626,56.188 80.808,56.252 81.06,56.252C81.31,56.252 81.537,56.198 81.739,56.09C81.943,55.981 82.156,55.815 82.377,55.589L82.63,55.853ZM80.467,54.561C80.717,54.559 80.936,54.545 81.123,54.52C81.312,54.493 81.474,54.458 81.609,54.412C81.745,54.368 81.857,54.315 81.947,54.253C82.036,54.19 82.107,54.12 82.16,54.047C82.212,53.972 82.25,53.892 82.269,53.811C82.29,53.727 82.3,53.641 82.3,53.551C82.3,53.386 82.262,53.255 82.185,53.162C82.107,53.069 81.993,53.022 81.841,53.022C81.652,53.022 81.464,53.09 81.282,53.228C81.1,53.364 80.939,53.549 80.799,53.781C80.658,54.013 80.549,54.274 80.467,54.561ZM84.743,52.732L84.987,52.732L84.703,53.735L84.751,53.75C85.008,53.394 85.261,53.132 85.505,52.961C85.751,52.79 86.003,52.704 86.264,52.704C86.461,52.704 86.626,52.719 86.76,52.749L86.565,53.662L86.146,53.662C86.124,53.52 86.091,53.413 86.045,53.339C85.998,53.267 85.927,53.229 85.829,53.229C85.723,53.229 85.601,53.283 85.463,53.392C85.325,53.502 85.183,53.65 85.04,53.841C84.896,54.03 84.789,54.205 84.717,54.367C84.645,54.527 84.59,54.705 84.552,54.9L84.183,56.664L83.479,56.664L84.097,53.881C84.154,53.625 84.183,53.432 84.183,53.299C84.183,53.222 84.17,53.164 84.145,53.122C84.122,53.079 84.081,53.048 84.027,53.027C83.973,53.008 83.882,52.993 83.751,52.984L83.795,52.769L84.743,52.732ZM89.199,53.719C89.168,53.474 89.099,53.297 88.99,53.187C88.88,53.076 88.709,53.022 88.479,53.022C88.351,53.022 88.236,53.045 88.133,53.093C88.03,53.14 87.949,53.21 87.889,53.301C87.829,53.392 87.8,53.499 87.8,53.621C87.8,53.721 87.819,53.813 87.861,53.895C87.902,53.978 87.97,54.065 88.067,54.154C88.162,54.244 88.297,54.347 88.47,54.464C88.734,54.641 88.917,54.812 89.024,54.978C89.13,55.143 89.182,55.334 89.182,55.552C89.182,55.807 89.121,56.024 88.999,56.201C88.877,56.379 88.711,56.512 88.5,56.599C88.287,56.686 88.048,56.73 87.783,56.73C87.545,56.73 87.323,56.711 87.114,56.677C86.908,56.641 86.707,56.596 86.511,56.542L86.703,55.661L87.019,55.661C87.038,55.912 87.109,56.098 87.233,56.222C87.356,56.346 87.535,56.406 87.771,56.406C88.013,56.406 88.202,56.347 88.337,56.226C88.472,56.105 88.54,55.945 88.54,55.747C88.54,55.631 88.519,55.526 88.479,55.433C88.439,55.341 88.375,55.253 88.287,55.169C88.202,55.084 88.078,54.988 87.918,54.88C87.748,54.763 87.609,54.653 87.504,54.549C87.398,54.446 87.316,54.333 87.258,54.21C87.199,54.086 87.17,53.949 87.17,53.799C87.17,53.574 87.226,53.379 87.337,53.214C87.448,53.047 87.606,52.922 87.81,52.834C88.015,52.748 88.254,52.704 88.527,52.704C88.974,52.704 89.369,52.762 89.711,52.879L89.524,53.719L89.199,53.719ZM93.084,52.969L93.459,52.699L93.719,52.764L93.097,55.532C93.059,55.695 93.033,55.82 93.019,55.909C93.007,55.996 93,56.069 93,56.126C93,56.237 93.03,56.318 93.092,56.37C93.155,56.419 93.274,56.451 93.451,56.464L93.414,56.664L92.252,56.664L92.507,55.642L92.455,55.625C92.195,56.005 91.948,56.285 91.715,56.461C91.481,56.636 91.235,56.725 90.975,56.725C90.677,56.725 90.447,56.613 90.281,56.387C90.118,56.162 90.036,55.845 90.036,55.438C90.036,55.177 90.066,54.916 90.126,54.653C90.186,54.392 90.275,54.143 90.395,53.908C90.516,53.672 90.66,53.466 90.828,53.286C90.996,53.107 91.192,52.965 91.412,52.859C91.633,52.752 91.873,52.699 92.134,52.699C92.302,52.699 92.461,52.72 92.614,52.759C92.765,52.798 92.922,52.869 93.084,52.969ZM92.728,54.183C92.751,54.072 92.768,53.975 92.777,53.894C92.785,53.812 92.789,53.724 92.789,53.629C92.789,53.417 92.743,53.262 92.654,53.166C92.564,53.07 92.416,53.022 92.207,53.022C92.093,53.022 91.984,53.04 91.881,53.076C91.779,53.114 91.675,53.175 91.569,53.259C91.462,53.346 91.362,53.457 91.265,53.596C91.169,53.735 91.082,53.904 91.003,54.101C90.925,54.3 90.864,54.513 90.821,54.739C90.777,54.966 90.756,55.186 90.756,55.401C90.756,55.684 90.794,55.895 90.871,56.034C90.949,56.175 91.078,56.244 91.26,56.244C91.343,56.244 91.43,56.226 91.522,56.187C91.612,56.15 91.713,56.08 91.824,55.977C91.935,55.875 92.062,55.725 92.203,55.528C92.33,55.346 92.431,55.165 92.506,54.987C92.581,54.809 92.642,54.601 92.69,54.358L92.728,54.183ZM97.865,56.664L96.588,56.664L97.101,54.595C97.139,54.445 97.172,54.293 97.2,54.14C97.229,53.987 97.243,53.848 97.243,53.723C97.243,53.527 97.211,53.388 97.146,53.304C97.081,53.222 96.971,53.181 96.817,53.181C96.705,53.181 96.582,53.226 96.448,53.319C96.315,53.411 96.173,53.551 96.023,53.741C95.875,53.93 95.755,54.111 95.668,54.283C95.579,54.456 95.51,54.661 95.458,54.9L95.088,56.664L94.386,56.664L95.43,52.007C95.46,51.872 95.48,51.773 95.493,51.711C95.506,51.651 95.513,51.594 95.519,51.542C95.525,51.491 95.528,51.445 95.528,51.404C95.528,51.29 95.493,51.21 95.423,51.164C95.354,51.118 95.231,51.092 95.052,51.086L95.1,50.874L96.128,50.838L96.364,50.838L95.665,53.662L95.715,53.678C95.969,53.337 96.212,53.091 96.442,52.936C96.672,52.781 96.907,52.704 97.146,52.704C97.408,52.704 97.607,52.777 97.744,52.922C97.878,53.068 97.946,53.282 97.946,53.567C97.946,53.741 97.919,53.951 97.865,54.196L97.523,55.646C97.496,55.763 97.477,55.856 97.466,55.927C97.455,55.996 97.451,56.058 97.451,56.111C97.451,56.194 97.465,56.259 97.493,56.306C97.522,56.351 97.565,56.386 97.623,56.41C97.681,56.432 97.774,56.451 97.902,56.464L97.865,56.664ZM101.877,52.969L102.252,52.699L102.511,52.764L101.889,55.532C101.852,55.695 101.826,55.82 101.812,55.909C101.799,55.996 101.793,56.069 101.793,56.126C101.793,56.237 101.823,56.318 101.885,56.37C101.948,56.419 102.067,56.451 102.244,56.464L102.207,56.664L101.045,56.664L101.3,55.642L101.247,55.625C100.988,56.005 100.741,56.285 100.508,56.461C100.274,56.636 100.027,56.725 99.768,56.725C99.47,56.725 99.239,56.613 99.074,56.387C98.911,56.162 98.828,55.845 98.828,55.438C98.828,55.177 98.859,54.916 98.918,54.653C98.979,54.392 99.067,54.143 99.188,53.908C99.309,53.672 99.453,53.466 99.621,53.286C99.789,53.107 99.985,52.965 100.205,52.859C100.426,52.752 100.666,52.699 100.927,52.699C101.095,52.699 101.254,52.72 101.407,52.759C101.558,52.798 101.715,52.869 101.877,52.969ZM101.52,54.183C101.544,54.072 101.561,53.975 101.569,53.894C101.577,53.812 101.582,53.724 101.582,53.629C101.582,53.417 101.536,53.262 101.447,53.166C101.357,53.07 101.208,53.022 101,53.022C100.886,53.022 100.777,53.04 100.674,53.076C100.571,53.114 100.467,53.175 100.362,53.259C100.255,53.346 100.155,53.457 100.058,53.596C99.962,53.735 99.875,53.904 99.796,54.101C99.718,54.3 99.657,54.513 99.614,54.739C99.569,54.966 99.549,55.186 99.549,55.401C99.549,55.684 99.587,55.895 99.664,56.034C99.742,56.175 99.871,56.244 100.053,56.244C100.136,56.244 100.223,56.226 100.315,56.187C100.405,56.15 100.506,56.08 100.617,55.977C100.728,55.875 100.855,55.725 100.996,55.528C101.122,55.346 101.224,55.165 101.298,54.987C101.374,54.809 101.435,54.601 101.483,54.358L101.52,54.183ZM103.813,56.464L103.438,56.73L103.179,56.664L104.23,52.007C104.247,51.94 104.266,51.841 104.29,51.713C104.312,51.587 104.325,51.482 104.325,51.404C104.325,51.29 104.29,51.21 104.221,51.164C104.151,51.118 104.027,51.092 103.849,51.086L103.897,50.874L104.925,50.838L105.161,50.838L104.447,53.689L104.5,53.706C104.762,53.353 105.009,53.098 105.239,52.94C105.469,52.783 105.7,52.704 105.93,52.704C106.226,52.704 106.454,52.816 106.62,53.043C106.783,53.268 106.865,53.585 106.865,53.996C106.865,54.289 106.825,54.584 106.745,54.88C106.665,55.176 106.555,55.443 106.412,55.682C106.27,55.922 106.111,56.118 105.936,56.271C105.761,56.425 105.578,56.539 105.383,56.615C105.189,56.692 104.985,56.73 104.771,56.73C104.411,56.73 104.091,56.641 103.813,56.464ZM104.169,55.246C104.143,55.368 104.126,55.472 104.119,55.559C104.112,55.644 104.108,55.724 104.108,55.801C104.108,56.015 104.155,56.171 104.25,56.265C104.343,56.36 104.498,56.406 104.715,56.406C104.856,56.406 104.984,56.38 105.1,56.326C105.217,56.272 105.328,56.193 105.432,56.087C105.536,55.983 105.631,55.856 105.716,55.707C105.803,55.557 105.877,55.388 105.943,55.196C106.008,55.004 106.056,54.806 106.091,54.601C106.124,54.396 106.141,54.204 106.141,54.027C106.141,53.745 106.102,53.534 106.022,53.392C105.941,53.251 105.813,53.181 105.637,53.181C105.507,53.181 105.379,53.222 105.253,53.304C105.127,53.388 104.987,53.525 104.833,53.716C104.679,53.908 104.552,54.104 104.455,54.305C104.356,54.506 104.275,54.763 104.206,55.075L104.169,55.246Z" style="fill:rgb(108,110,112);fill-rule:nonzero;"/>
            </g>
            <g transform="matrix(0.854848,0,0,0.854848,22.7673,7.87408)">
                <path d="M110.592,52.969L110.967,52.699L111.226,52.764L110.605,55.532C110.567,55.695 110.541,55.82 110.527,55.909C110.514,55.996 110.507,56.069 110.507,56.126C110.507,56.237 110.538,56.318 110.6,56.37C110.663,56.419 110.782,56.451 110.959,56.464L110.922,56.664L109.76,56.664L110.015,55.642L109.963,55.625C109.703,56.005 109.455,56.285 109.223,56.461C108.989,56.636 108.743,56.725 108.483,56.725C108.185,56.725 107.954,56.613 107.789,56.387C107.626,56.162 107.543,55.845 107.543,55.438C107.543,55.177 107.574,54.916 107.634,54.653C107.694,54.392 107.782,54.143 107.903,53.908C108.024,53.672 108.168,53.466 108.336,53.286C108.504,53.107 108.7,52.965 108.92,52.859C109.14,52.752 109.381,52.699 109.642,52.699C109.809,52.699 109.969,52.72 110.122,52.759C110.273,52.798 110.43,52.869 110.592,52.969ZM110.236,54.183C110.259,54.072 110.276,53.975 110.284,53.894C110.292,53.812 110.297,53.724 110.297,53.629C110.297,53.417 110.251,53.262 110.162,53.166C110.072,53.07 109.923,53.022 109.715,53.022C109.601,53.022 109.492,53.04 109.389,53.076C109.286,53.114 109.182,53.175 109.077,53.259C108.97,53.346 108.87,53.457 108.773,53.596C108.677,53.735 108.59,53.904 108.511,54.101C108.433,54.3 108.372,54.513 108.329,54.739C108.284,54.966 108.264,55.186 108.264,55.401C108.264,55.684 108.301,55.895 108.379,56.034C108.456,56.175 108.586,56.244 108.768,56.244C108.851,56.244 108.938,56.226 109.029,56.187C109.12,56.15 109.221,56.08 109.332,55.977C109.443,55.875 109.57,55.725 109.711,55.528C109.838,55.346 109.939,55.165 110.013,54.987C110.088,54.809 110.15,54.601 110.198,54.358L110.236,54.183ZM114.324,55.915C114.101,56.183 113.882,56.386 113.666,56.524C113.449,56.662 113.219,56.73 112.974,56.73C112.687,56.73 112.474,56.656 112.332,56.51C112.19,56.363 112.121,56.15 112.121,55.87C112.121,55.699 112.145,55.507 112.193,55.296L112.699,53.181L112.092,53.181L112.136,52.973C112.297,52.954 112.424,52.919 112.517,52.869C112.611,52.819 112.689,52.752 112.753,52.669C112.816,52.587 112.876,52.478 112.93,52.346C112.984,52.213 113.052,52.018 113.133,51.763L113.693,51.763L113.47,52.769L114.759,52.769L114.67,53.181L113.377,53.181L112.987,54.762C112.879,55.201 112.824,55.531 112.824,55.747C112.824,55.913 112.859,56.038 112.931,56.124C113.004,56.209 113.109,56.252 113.246,56.252C113.371,56.252 113.502,56.204 113.639,56.108C113.776,56.012 113.925,55.866 114.088,55.67L114.324,55.915Z" style="fill:rgb(108,110,112);fill-rule:nonzero;"/>
            </g>
            <g transform="matrix(0.854848,0,0,0.854848,22.7673,7.87408)">
                <path d="M102.727,33.226C102.727,33.492 102.635,33.718 102.451,33.906C102.269,34.094 102.046,34.188 101.784,34.188C101.522,34.188 101.3,34.093 101.118,33.903C100.936,33.716 100.845,33.489 100.845,33.226C100.845,32.964 100.936,32.739 101.118,32.551C101.3,32.363 101.522,32.269 101.784,32.269C102.046,32.269 102.269,32.363 102.451,32.551C102.635,32.739 102.727,32.964 102.727,33.226ZM105.928,31.463C105.925,31.463 105.844,31.441 105.687,31.397C105.528,31.353 105.399,31.331 105.301,31.331C105.064,31.331 104.877,31.403 104.735,31.547C104.594,31.689 104.523,31.881 104.523,32.118C104.523,32.366 104.601,32.561 104.756,32.7C104.911,32.841 105.112,32.911 105.359,32.911C105.477,32.911 105.61,32.883 105.757,32.825C105.903,32.768 105.973,32.739 105.965,32.739C106.01,32.739 106.069,32.908 106.14,33.246C106.201,33.555 106.232,33.76 106.232,33.861C106.232,33.961 106.066,34.047 105.735,34.12C105.479,34.176 105.271,34.204 105.113,34.204C104.526,34.204 104.042,34.007 103.66,33.61C103.278,33.214 103.087,32.72 103.087,32.127C103.087,31.541 103.278,31.047 103.661,30.648C104.043,30.247 104.528,30.047 105.112,30.047C105.509,30.047 105.859,30.134 106.16,30.305C106.23,30.342 106.264,30.378 106.264,30.413C106.264,30.448 106.224,30.606 106.144,30.888C106.07,31.158 106.021,31.322 105.999,31.378C105.975,31.434 105.952,31.463 105.928,31.463ZM110.551,32.128C110.551,32.739 110.365,33.236 109.992,33.616C109.619,33.997 109.129,34.188 108.523,34.188C107.935,34.188 107.451,33.999 107.072,33.624C106.693,33.249 106.503,32.766 106.503,32.176C106.503,31.553 106.685,31.049 107.048,30.662C107.412,30.274 107.903,30.08 108.523,30.08C109.127,30.08 109.616,30.27 109.99,30.65C110.364,31.029 110.551,31.522 110.551,32.128ZM109.237,32.127C109.237,31.915 109.172,31.729 109.04,31.566C108.911,31.404 108.739,31.323 108.531,31.323C108.319,31.323 108.145,31.407 108.009,31.572C107.881,31.728 107.817,31.913 107.817,32.127C107.817,32.345 107.881,32.532 108.009,32.686C108.145,32.853 108.319,32.936 108.531,32.936C108.739,32.936 108.913,32.853 109.049,32.686C109.174,32.532 109.237,32.345 109.237,32.127ZM117.449,33.957C117.449,34.05 117.409,34.102 117.328,34.113C117.247,34.124 117.051,34.13 116.734,34.13C116.407,34.13 116.204,34.122 116.124,34.105C116.043,34.09 116.003,34.024 116.003,33.909C116.003,33.785 116.007,33.602 116.016,33.356C116.024,33.111 116.028,32.927 116.028,32.803C116.028,32.334 116.022,31.999 116.012,31.801C115.996,31.482 115.844,31.323 115.558,31.323C115.433,31.323 115.308,31.377 115.183,31.482C115.059,31.588 114.99,31.704 114.976,31.833C114.966,31.946 114.96,32.276 114.96,32.822C114.96,32.949 114.965,33.139 114.972,33.396C114.981,33.651 114.985,33.843 114.985,33.972C114.985,34.061 114.947,34.105 114.868,34.105L113.652,34.105C113.576,34.105 113.54,34.05 113.54,33.94C113.54,33.814 113.544,33.625 113.551,33.374C113.56,33.122 113.564,32.931 113.564,32.802C113.564,32.703 113.561,32.554 113.556,32.352C113.55,32.152 113.548,31.999 113.548,31.898C113.548,31.515 113.403,31.323 113.111,31.323C112.993,31.323 112.866,31.368 112.729,31.46C112.58,31.559 112.505,31.663 112.505,31.773C112.505,32.017 112.506,32.382 112.509,32.866C112.511,33.352 112.513,33.716 112.513,33.957C112.513,34.023 112.505,34.065 112.488,34.081C112.473,34.097 112.432,34.108 112.365,34.113C112.244,34.124 112.056,34.13 111.797,34.13C111.629,34.13 111.437,34.122 111.223,34.105C111.16,34.1 111.122,34.09 111.11,34.078C111.098,34.064 111.092,34.023 111.092,33.957C111.092,33.741 111.094,33.422 111.097,32.994C111.099,32.567 111.101,32.246 111.101,32.032C111.101,31.593 111.067,31.098 111.001,30.549C110.996,30.518 110.993,30.493 110.993,30.477C110.993,30.431 111.013,30.401 111.05,30.385C111.108,30.36 111.219,30.341 111.382,30.324C111.583,30.305 111.703,30.293 111.739,30.287C111.767,30.282 111.873,30.254 112.057,30.202C112.187,30.165 112.293,30.146 112.373,30.146C112.425,30.146 112.453,30.24 112.456,30.426C112.458,30.612 112.469,30.706 112.488,30.706C112.515,30.695 112.546,30.676 112.58,30.65C112.821,30.461 113.01,30.333 113.149,30.263C113.354,30.162 113.578,30.113 113.817,30.113C114.064,30.113 114.281,30.168 114.474,30.278C114.69,30.403 114.83,30.575 114.894,30.797C115.037,30.604 115.231,30.442 115.48,30.311C115.729,30.179 115.972,30.113 116.208,30.113C116.56,30.113 116.849,30.196 117.071,30.359C117.323,30.544 117.449,30.807 117.449,31.15C117.449,31.293 117.445,31.507 117.437,31.792C117.428,32.078 117.424,32.292 117.424,32.433C117.424,32.602 117.428,32.855 117.437,33.196C117.445,33.535 117.449,33.788 117.449,33.957Z" style="fill:rgb(108,110,112);fill-rule:nonzero;"/>
            </g>
        </g>
    </g>
</svg>
